<svg width="466" height="426" viewBox="0 0 466 426" fill="none" xmlns="http://www.w3.org/2000/svg">
<rect width="466" height="426" fill="white"/>
<g clip-path="url(#clip0_216_48)">
<path d="M23.5 35C24.8807 35 26 33.8807 26 32.5C26 31.1193 24.8807 30 23.5 30C22.1193 30 21 31.1193 21 32.5C21 33.8807 22.1193 35 23.5 35Z" fill="#F67A45"/>
<path d="M93.5 35C94.8807 35 96 33.8807 96 32.5C96 31.1193 94.8807 30 93.5 30C92.1193 30 91 31.1193 91 32.5C91 33.8807 92.1193 35 93.5 35Z" fill="#F67A45"/>
<path d="M163.5 35C164.881 35 166 33.8807 166 32.5C166 31.1193 164.881 30 163.5 30C162.119 30 161 31.1193 161 32.5C161 33.8807 162.119 35 163.5 35Z" fill="#F67A45"/>
<path d="M233.5 35C234.881 35 236 33.8807 236 32.5C236 31.1193 234.881 30 233.5 30C232.119 30 231 31.1193 231 32.5C231 33.8807 232.119 35 233.5 35Z" fill="#F67A45"/>
<path d="M303.5 35C304.881 35 306 33.8807 306 32.5C306 31.1193 304.881 30 303.5 30C302.119 30 301 31.1193 301 32.5C301 33.8807 302.119 35 303.5 35Z" fill="#F67A45"/>
<path d="M373.5 35C374.881 35 376 33.8807 376 32.5C376 31.1193 374.881 30 373.5 30C372.119 30 371 31.1193 371 32.5C371 33.8807 372.119 35 373.5 35Z" fill="#F67A45"/>
<path d="M443.5 35C444.881 35 446 33.8807 446 32.5C446 31.1193 444.881 30 443.5 30C442.119 30 441 31.1193 441 32.5C441 33.8807 442.119 35 443.5 35Z" fill="#F67A45"/>
<path d="M23.5 95C24.8807 95 26 93.8807 26 92.5C26 91.1193 24.8807 90 23.5 90C22.1193 90 21 91.1193 21 92.5C21 93.8807 22.1193 95 23.5 95Z" fill="#F67A45"/>
<path d="M93.5 95C94.8807 95 96 93.8807 96 92.5C96 91.1193 94.8807 90 93.5 90C92.1193 90 91 91.1193 91 92.5C91 93.8807 92.1193 95 93.5 95Z" fill="#F67A45"/>
<path d="M163.5 95C164.881 95 166 93.8807 166 92.5C166 91.1193 164.881 90 163.5 90C162.119 90 161 91.1193 161 92.5C161 93.8807 162.119 95 163.5 95Z" fill="#F67A45"/>
<path d="M233.5 95C234.881 95 236 93.8807 236 92.5C236 91.1193 234.881 90 233.5 90C232.119 90 231 91.1193 231 92.5C231 93.8807 232.119 95 233.5 95Z" fill="#F67A45"/>
<path d="M303.5 95C304.881 95 306 93.8807 306 92.5C306 91.1193 304.881 90 303.5 90C302.119 90 301 91.1193 301 92.5C301 93.8807 302.119 95 303.5 95Z" fill="#F67A45"/>
<path d="M373.5 95C374.881 95 376 93.8807 376 92.5C376 91.1193 374.881 90 373.5 90C372.119 90 371 91.1193 371 92.5C371 93.8807 372.119 95 373.5 95Z" fill="#F67A45"/>
<path d="M443.5 95C444.881 95 446 93.8807 446 92.5C446 91.1193 444.881 90 443.5 90C442.119 90 441 91.1193 441 92.5C441 93.8807 442.119 95 443.5 95Z" fill="#F67A45"/>
<path d="M23.5 155C24.8807 155 26 153.881 26 152.5C26 151.119 24.8807 150 23.5 150C22.1193 150 21 151.119 21 152.5C21 153.881 22.1193 155 23.5 155Z" fill="#F67A45"/>
<path d="M93.5 155C94.8807 155 96 153.881 96 152.5C96 151.119 94.8807 150 93.5 150C92.1193 150 91 151.119 91 152.5C91 153.881 92.1193 155 93.5 155Z" fill="#F67A45"/>
<path d="M163.5 155C164.881 155 166 153.881 166 152.5C166 151.119 164.881 150 163.5 150C162.119 150 161 151.119 161 152.5C161 153.881 162.119 155 163.5 155Z" fill="#F67A45"/>
<path d="M233.5 155C234.881 155 236 153.881 236 152.5C236 151.119 234.881 150 233.5 150C232.119 150 231 151.119 231 152.5C231 153.881 232.119 155 233.5 155Z" fill="#F67A45"/>
<path d="M303.5 155C304.881 155 306 153.881 306 152.5C306 151.119 304.881 150 303.5 150C302.119 150 301 151.119 301 152.5C301 153.881 302.119 155 303.5 155Z" fill="#F67A45"/>
<path d="M373.5 155C374.881 155 376 153.881 376 152.5C376 151.119 374.881 150 373.5 150C372.119 150 371 151.119 371 152.5C371 153.881 372.119 155 373.5 155Z" fill="#F67A45"/>
<path d="M443.5 155C444.881 155 446 153.881 446 152.5C446 151.119 444.881 150 443.5 150C442.119 150 441 151.119 441 152.5C441 153.881 442.119 155 443.5 155Z" fill="#F67A45"/>
<path d="M23.5 215C24.8807 215 26 213.881 26 212.5C26 211.119 24.8807 210 23.5 210C22.1193 210 21 211.119 21 212.5C21 213.881 22.1193 215 23.5 215Z" fill="#F67A45"/>
<path d="M93.5 215C94.8807 215 96 213.881 96 212.5C96 211.119 94.8807 210 93.5 210C92.1193 210 91 211.119 91 212.5C91 213.881 92.1193 215 93.5 215Z" fill="#F67A45"/>
<path d="M163.5 215C164.881 215 166 213.881 166 212.5C166 211.119 164.881 210 163.5 210C162.119 210 161 211.119 161 212.5C161 213.881 162.119 215 163.5 215Z" fill="#F67A45"/>
<path d="M233.5 215C234.881 215 236 213.881 236 212.5C236 211.119 234.881 210 233.5 210C232.119 210 231 211.119 231 212.5C231 213.881 232.119 215 233.5 215Z" fill="#F67A45"/>
<path d="M303.5 215C304.881 215 306 213.881 306 212.5C306 211.119 304.881 210 303.5 210C302.119 210 301 211.119 301 212.5C301 213.881 302.119 215 303.5 215Z" fill="#F67A45"/>
<path d="M373.5 215C374.881 215 376 213.881 376 212.5C376 211.119 374.881 210 373.5 210C372.119 210 371 211.119 371 212.5C371 213.881 372.119 215 373.5 215Z" fill="#F67A45"/>
<path d="M443.5 215C444.881 215 446 213.881 446 212.5C446 211.119 444.881 210 443.5 210C442.119 210 441 211.119 441 212.5C441 213.881 442.119 215 443.5 215Z" fill="#F67A45"/>
<path d="M23.5 275C24.8807 275 26 273.881 26 272.5C26 271.119 24.8807 270 23.5 270C22.1193 270 21 271.119 21 272.5C21 273.881 22.1193 275 23.5 275Z" fill="#F67A45"/>
<path d="M93.5 275C94.8807 275 96 273.881 96 272.5C96 271.119 94.8807 270 93.5 270C92.1193 270 91 271.119 91 272.5C91 273.881 92.1193 275 93.5 275Z" fill="#F67A45"/>
<path d="M163.5 275C164.881 275 166 273.881 166 272.5C166 271.119 164.881 270 163.5 270C162.119 270 161 271.119 161 272.5C161 273.881 162.119 275 163.5 275Z" fill="#F67A45"/>
<path d="M233.5 275C234.881 275 236 273.881 236 272.5C236 271.119 234.881 270 233.5 270C232.119 270 231 271.119 231 272.5C231 273.881 232.119 275 233.5 275Z" fill="#F67A45"/>
<path d="M303.5 275C304.881 275 306 273.881 306 272.5C306 271.119 304.881 270 303.5 270C302.119 270 301 271.119 301 272.5C301 273.881 302.119 275 303.5 275Z" fill="#F67A45"/>
<path d="M373.5 275C374.881 275 376 273.881 376 272.5C376 271.119 374.881 270 373.5 270C372.119 270 371 271.119 371 272.5C371 273.881 372.119 275 373.5 275Z" fill="#F67A45"/>
<path d="M443.5 275C444.881 275 446 273.881 446 272.5C446 271.119 444.881 270 443.5 270C442.119 270 441 271.119 441 272.5C441 273.881 442.119 275 443.5 275Z" fill="#F67A45"/>
<path d="M23.5 335C24.8807 335 26 333.881 26 332.5C26 331.119 24.8807 330 23.5 330C22.1193 330 21 331.119 21 332.5C21 333.881 22.1193 335 23.5 335Z" fill="#F67A45"/>
<path d="M93.5 335C94.8807 335 96 333.881 96 332.5C96 331.119 94.8807 330 93.5 330C92.1193 330 91 331.119 91 332.5C91 333.881 92.1193 335 93.5 335Z" fill="#F67A45"/>
<path d="M163.5 335C164.881 335 166 333.881 166 332.5C166 331.119 164.881 330 163.5 330C162.119 330 161 331.119 161 332.5C161 333.881 162.119 335 163.5 335Z" fill="#F67A45"/>
<path d="M233.5 335C234.881 335 236 333.881 236 332.5C236 331.119 234.881 330 233.5 330C232.119 330 231 331.119 231 332.5C231 333.881 232.119 335 233.5 335Z" fill="#F67A45"/>
<path d="M303.5 335C304.881 335 306 333.881 306 332.5C306 331.119 304.881 330 303.5 330C302.119 330 301 331.119 301 332.5C301 333.881 302.119 335 303.5 335Z" fill="#F67A45"/>
<path d="M373.5 335C374.881 335 376 333.881 376 332.5C376 331.119 374.881 330 373.5 330C372.119 330 371 331.119 371 332.5C371 333.881 372.119 335 373.5 335Z" fill="#F67A45"/>
<path d="M443.5 335C444.881 335 446 333.881 446 332.5C446 331.119 444.881 330 443.5 330C442.119 330 441 331.119 441 332.5C441 333.881 442.119 335 443.5 335Z" fill="#F67A45"/>
<path d="M23.5 395C24.8807 395 26 393.881 26 392.5C26 391.119 24.8807 390 23.5 390C22.1193 390 21 391.119 21 392.5C21 393.881 22.1193 395 23.5 395Z" fill="#F67A45"/>
<path d="M93.5 395C94.8807 395 96 393.881 96 392.5C96 391.119 94.8807 390 93.5 390C92.1193 390 91 391.119 91 392.5C91 393.881 92.1193 395 93.5 395Z" fill="#F67A45"/>
<path d="M163.5 395C164.881 395 166 393.881 166 392.5C166 391.119 164.881 390 163.5 390C162.119 390 161 391.119 161 392.5C161 393.881 162.119 395 163.5 395Z" fill="#F67A45"/>
<path d="M233.5 395C234.881 395 236 393.881 236 392.5C236 391.119 234.881 390 233.5 390C232.119 390 231 391.119 231 392.5C231 393.881 232.119 395 233.5 395Z" fill="#F67A45"/>
<path d="M303.5 395C304.881 395 306 393.881 306 392.5C306 391.119 304.881 390 303.5 390C302.119 390 301 391.119 301 392.5C301 393.881 302.119 395 303.5 395Z" fill="#F67A45"/>
<path d="M373.5 395C374.881 395 376 393.881 376 392.5C376 391.119 374.881 390 373.5 390C372.119 390 371 391.119 371 392.5C371 393.881 372.119 395 373.5 395Z" fill="#F67A45"/>
<path d="M443.5 395C444.881 395 446 393.881 446 392.5C446 391.119 444.881 390 443.5 390C442.119 390 441 391.119 441 392.5C441 393.881 442.119 395 443.5 395Z" fill="#F67A45"/>
</g>
<defs>
<clipPath id="clip0_216_48">
<rect width="425" height="365" fill="white" transform="translate(21 30)"/>
</clipPath>
</defs>
</svg>
